<?xml version="1.0" standalone="no"?><!DOCTYPE svg PUBLIC "-//W3C//DTD SVG 1.1//EN" "http://www.w3.org/Graphics/SVG/1.1/DTD/svg11.dtd"><svg t="1689649582660" class="icon" viewBox="0 0 1048 1024" version="1.1" xmlns="http://www.w3.org/2000/svg" p-id="1988" xmlns:xlink="http://www.w3.org/1999/xlink" width="204.6875" height="200"><path d="M343.04 1024H79.555048l52.053333-763.928381h159.378286z m-211.309714-48.761905h159.134476l-45.470476-666.404571h-68.266667z" p-id="1989" fill="#6ad8ff"></path><path d="M0 438.857143h414.47619v48.761905H0z" p-id="1990" fill="#6ad8ff"></path><path d="M24.380952 365.714286h48.761905v73.142857H24.380952z" p-id="1991" fill="#6ad8ff"></path><path d="M341.333333 365.714286h48.761905v73.142857h-48.761905z" p-id="1992" fill="#6ad8ff"></path><path d="M0 975.238095h414.47619v48.761905H0z" p-id="1993" fill="#6ad8ff"></path><path d="M939.349333 1015.881143h-287.695238L708.85181 0h173.275428z m-236.153904-48.761905h184.58819L836.022857 48.761905h-81.066667z" p-id="1994" fill="#6ad8ff"></path><path d="M560.761905 170.666667h463.238095v48.761904H560.761905z" p-id="1995" fill="#6ad8ff"></path><path d="M585.142857 97.52381h48.761905v73.142857h-48.761905z" p-id="1996" fill="#6ad8ff"></path><path d="M560.761905 975.238095h487.619047v48.761905H560.761905z" p-id="1997" fill="#6ad8ff"></path><path d="M701.147429 248.003048l34.474666-34.474667 162.377143 162.377143-34.474667 34.474666z" p-id="1998" fill="#6ad8ff"></path><path d="M128.926476 502.710857l34.718476-34.230857 150.284191 152.405333-34.718476 34.230857z" p-id="1999" fill="#6ad8ff"></path><path d="M116.004571 808.764952l34.474667-34.474666 183.710476 183.710476-34.474666 34.474667z" p-id="2000" fill="#6ad8ff"></path><path d="M691.321905 517.607619l157.817905-157.817905 34.474666 34.474667-157.817905 157.817905z" p-id="2001" fill="#6ad8ff"></path><path d="M106.179048 785.798095l157.817904-157.817905 34.474667 34.474667-157.817905 157.817905z" p-id="2002" fill="#6ad8ff"></path><path d="M701.147429 516.193524l34.474666-34.474667 180.662857 180.662857-34.474666 34.474667z" p-id="2003" fill="#6ad8ff"></path><path d="M676.08381 825.417143l173.056-173.056 34.474666 34.474667-173.056 173.056z" p-id="2004" fill="#6ad8ff"></path><path d="M701.805714 858.160762l33.158096-35.791238 165.522285 153.35619-33.158095 35.766857z" p-id="2005" fill="#6ad8ff"></path><path d="M949.321143 203.897905l-29.525333-38.814476a695.417905 695.417905 0 0 0 83.334095-72.923429l35.961905 32.914286a729.35619 729.35619 0 0 1-89.770667 78.823619z" p-id="2006" fill="#6ad8ff"></path><path d="M346.624 409.6q-12.190476 0-24.380952-0.292571l1.194666-48.761905a923.769905 923.769905 0 0 0 382.073905-72.118857l18.822095 45.007238A974.140952 974.140952 0 0 1 346.624 409.6z" p-id="2007" fill="#6ad8ff"></path><path d="M26.819048 414.744381q-10.532571 0-21.211429-0.268191l1.170286-48.761904a813.056 813.056 0 0 0 581.802666-229.790476l35.986286 32.914285A850.480762 850.480762 0 0 1 26.819048 414.744381z" p-id="2008" fill="#6ad8ff"></path></svg>